# xmcd
#
# Track frame offsets: 
#        150
#        3443
#        27708
#        48197
#        66857
#        85237
#        105688
#        126221
#        145276
#        159959
#        177281
#
# Disc length: 2620 seconds
#
# Revision: 0
# Processed by: cddbd v1.5.2PL0 Copyright (c) Steve Scherf et al.
# Submitted via: ExactAudioCopy v0.99pb4
#
DISCID=8f0a3a0b
DTITLE=Lola Bleu - Love Will Find A Way
DYEAR=2010
DGENRE=R&B
TTITLE0=Intro
TTITLE1=Hate To Wake Up
TTITLE2=What Do We Do
TTITLE3=Deep Pain
TTITLE4=So Over You
TTITLE5=A Little Hope
TTITLE6=Love Will Find A Way
TTITLE7=Journey
TTITLE8=Get Away
TTITLE9=Where Do We Go From Here
TTITLE10=I Found You
EXTD=
EXTT0=
EXTT1=
EXTT2=
EXTT3=
EXTT4=
EXTT5=
EXTT6=
EXTT7=
EXTT8=
EXTT9=
EXTT10=
PLAYORDER=
